<svg xmlns="http://www.w3.org/2000/svg" width="128" height="128" viewBox="0 0 128 128">
<defs>
<linearGradient id="bg" x1="0" y1="0" x2="0" y2="1">
<stop offset="0" stop-color="#484848"/><stop offset="0.55" stop-color="#282828"/><stop offset="1" stop-color="#141414"/>
</linearGradient>
<radialGradient id="halo" cx="0.5" cy="0.5" r="0.5">
<stop offset="0" stop-color="#a0a0a0" stop-opacity="0.5"/><stop offset="1" stop-color="#a0a0a0" stop-opacity="0"/>
</radialGradient>
<radialGradient id="vig" cx="0.5" cy="0.42" r="0.75">
<stop offset="0.55" stop-color="#000000" stop-opacity="0"/><stop offset="1" stop-color="#000000" stop-opacity="0.42"/>
</radialGradient>
<linearGradient id="beam" x1="0" y1="0" x2="1" y2="1">
<stop offset="0" stop-color="#d1d1d1" stop-opacity="0.10"/><stop offset="0.5" stop-color="#d1d1d1" stop-opacity="0"/>
</linearGradient>
<linearGradient id="metal" x1="0" y1="0" x2="0" y2="1">
<stop offset="0" stop-color="#bebebe"/><stop offset="1" stop-color="#717171"/>
</linearGradient>
</defs>
<rect x="2" y="2" width="124" height="124" rx="14" fill="url(#bg)"/>
<rect x="2" y="2" width="124" height="124" rx="14" fill="url(#beam)"/>
<ellipse cx="64" cy="62" rx="44" ry="44" fill="url(#halo)"/>
<path d="M64 98 Q28 74 28 50 Q28 32 46 32 Q58 32 64 45 Q70 32 82 32 Q100 32 100 50 Q100 74 64 98 Z" fill="#535353"/>
<path d="M64 92 Q34 72 33 52 Q33 38 47 38 Q57 38 62 48 L64 52 Z" fill="#6b6b6b" opacity="0.85"/>
<path d="M45 47 Q47 40 54 40" stroke="#979797" stroke-width="3" fill="none" stroke-linecap="round"/>
<path d="M64 56 Q66 64 70 70 Q66 76 64 82 Q62 76 58 70 Q62 64 64 56 Z" fill="#8e8e8e" opacity="0.9"/>
<ellipse cx="46" cy="44" rx="7" ry="5" fill="#d1d1d1" opacity="0.5"/>
<rect x="2" y="2" width="124" height="124" rx="14" fill="url(#vig)"/>
<rect x="2.5" y="2.5" width="123" height="123" rx="13" fill="none" stroke="#a0a0a0" stroke-width="3"/>
<rect x="7" y="7" width="114" height="114" rx="9" fill="none" stroke="#a0a0a0" stroke-width="1" opacity="0.45"/>
<circle cx="10" cy="10" r="2.2" fill="#a0a0a0"/><circle cx="118" cy="10" r="2.2" fill="#a0a0a0"/>
<circle cx="10" cy="118" r="2.2" fill="#a0a0a0"/><circle cx="118" cy="118" r="2.2" fill="#a0a0a0"/>
</svg>