<svg xmlns="http://www.w3.org/2000/svg" width="128" height="128" viewBox="0 0 128 128">
<defs>
<linearGradient id="bg" x1="0" y1="0" x2="0" y2="1">
<stop offset="0" stop-color="#3f3f3f"/><stop offset="0.55" stop-color="#242424"/><stop offset="1" stop-color="#131313"/>
</linearGradient>
<radialGradient id="halo" cx="0.5" cy="0.5" r="0.5">
<stop offset="0" stop-color="#838383" stop-opacity="0.5"/><stop offset="1" stop-color="#838383" stop-opacity="0"/>
</radialGradient>
<radialGradient id="vig" cx="0.5" cy="0.42" r="0.75">
<stop offset="0.55" stop-color="#000000" stop-opacity="0"/><stop offset="1" stop-color="#000000" stop-opacity="0.42"/>
</radialGradient>
<linearGradient id="beam" x1="0" y1="0" x2="1" y2="1">
<stop offset="0" stop-color="#d1d1d1" stop-opacity="0.10"/><stop offset="0.5" stop-color="#d1d1d1" stop-opacity="0"/>
</linearGradient>
<linearGradient id="metal" x1="0" y1="0" x2="0" y2="1">
<stop offset="0" stop-color="#bebebe"/><stop offset="1" stop-color="#717171"/>
</linearGradient>
</defs>
<rect x="2" y="2" width="124" height="124" rx="14" fill="url(#bg)"/>
<rect x="2" y="2" width="124" height="124" rx="14" fill="url(#beam)"/>
<ellipse cx="64" cy="64" rx="38" ry="38" fill="url(#halo)"/>
<circle cx="64" cy="64" r="29" fill="#7b7b7b"/>
<circle cx="64" cy="64" r="29" fill="none" stroke="#4e4e4e" stroke-width="3"/>
<circle cx="64" cy="64" r="23" fill="#bbbbbb"/>
<circle cx="64" cy="64" r="23" fill="none" stroke="#989898" stroke-width="1.5" opacity="0.8"/>
<path d="M64 46 L64 50 M64 78 L64 82 M46 64 L50 64 M78 64 L82 64" stroke="#363636" stroke-width="2.5"/>
<path d="M64 64 L64 50 M64 64 L75 70" stroke="#292929" stroke-width="3" stroke-linecap="round"/>
<circle cx="64" cy="64" r="2.6" fill="#292929"/>
<ellipse cx="54" cy="48" rx="7" ry="4" fill="#d1d1d1" opacity="0.5"/>
<rect x="2" y="2" width="124" height="124" rx="14" fill="url(#vig)"/>
<rect x="2.5" y="2.5" width="123" height="123" rx="13" fill="none" stroke="#838383" stroke-width="3"/>
<rect x="7" y="7" width="114" height="114" rx="9" fill="none" stroke="#838383" stroke-width="1" opacity="0.45"/>
<circle cx="10" cy="10" r="2.2" fill="#838383"/><circle cx="118" cy="10" r="2.2" fill="#838383"/>
<circle cx="10" cy="118" r="2.2" fill="#838383"/><circle cx="118" cy="118" r="2.2" fill="#838383"/>
</svg>