<svg xmlns="http://www.w3.org/2000/svg" width="128" height="128" viewBox="0 0 128 128">
<defs>
<linearGradient id="bg" x1="0" y1="0" x2="0" y2="1">
<stop offset="0" stop-color="#31518a"/><stop offset="0.55" stop-color="#1d3050"/><stop offset="1" stop-color="#101a2c"/>
</linearGradient>
<radialGradient id="halo" cx="0.5" cy="0.5" r="0.5">
<stop offset="0" stop-color="#6ea8ff" stop-opacity="0.5"/><stop offset="1" stop-color="#6ea8ff" stop-opacity="0"/>
</radialGradient>
<radialGradient id="vig" cx="0.5" cy="0.42" r="0.75">
<stop offset="0.55" stop-color="#000000" stop-opacity="0"/><stop offset="1" stop-color="#000000" stop-opacity="0.42"/>
</radialGradient>
<linearGradient id="beam" x1="0" y1="0" x2="1" y2="1">
<stop offset="0" stop-color="#ffffff" stop-opacity="0.10"/><stop offset="0.5" stop-color="#ffffff" stop-opacity="0"/>
</linearGradient>
<linearGradient id="metal" x1="0" y1="0" x2="0" y2="1">
<stop offset="0" stop-color="#e8e8ec"/><stop offset="1" stop-color="#8a8a92"/>
</linearGradient>
</defs>
<rect x="2" y="2" width="124" height="124" rx="14" fill="url(#bg)"/>
<rect x="2" y="2" width="124" height="124" rx="14" fill="url(#beam)"/><ellipse cx="64" cy="114" rx="34" ry="10" fill="#000000" opacity="0.4"/>
<ellipse cx="64" cy="62" rx="40" ry="40" fill="url(#halo)" opacity="0.55"/>
<ellipse cx="64" cy="94" rx="20" ry="15" fill="#5a4a6e"/>
<ellipse cx="64" cy="99" rx="20" ry="10" fill="#443856"/>
<ellipse cx="64" cy="55" rx="28" ry="25" fill="#7a6890"/>
<path d="M44 44 Q54 30 64 33 Q78 29 84 44" stroke="#9c8ab2" stroke-width="3" fill="none"/>
<path d="M42 56 Q37 48 42 40 M86 56 Q91 48 86 40" stroke="#9c8ab2" stroke-width="3" fill="none"/>
<path d="M52 36 Q56 30 62 30 M70 30 Q76 30 78 35" stroke="#9c8ab2" stroke-width="2" fill="none" opacity="0.7"/>
<circle cx="55" cy="55" r="5.5" fill="url(#halo)" opacity="0.9"/><circle cx="73" cy="55" r="5.5" fill="url(#halo)" opacity="0.9"/>
<circle cx="55" cy="55" r="3.2" fill="#ff4ad2"/><circle cx="73" cy="55" r="3.2" fill="#ff4ad2"/>
<ellipse cx="56" cy="46" rx="9" ry="5" fill="#ffffff" opacity="0.5"/>
<rect x="2" y="2" width="124" height="124" rx="14" fill="url(#vig)"/>
<rect x="2.5" y="2.5" width="123" height="123" rx="13" fill="none" stroke="#6ea8ff" stroke-width="3"/>
<rect x="7" y="7" width="114" height="114" rx="9" fill="none" stroke="#6ea8ff" stroke-width="1" opacity="0.45"/>
<circle cx="10" cy="10" r="2.2" fill="#6ea8ff"/><circle cx="118" cy="10" r="2.2" fill="#6ea8ff"/>
<circle cx="10" cy="118" r="2.2" fill="#6ea8ff"/><circle cx="118" cy="118" r="2.2" fill="#6ea8ff"/>
</svg>